<?xml version="1.0" encoding="UTF-8" standalone="no"?>
<!-- Created with Inkscape (http://www.inkscape.org/) -->
<svg
   xmlns:svg="http://www.w3.org/2000/svg"
   xmlns="http://www.w3.org/2000/svg"
   version="1.0"
   width="1133.8583"
   height="298.34644"
   id="svg2">
  <defs
     id="defs4">
    <clipPath
       id="clipPath2581">
      <path
         d="M 163.377,246.329 L 758.653,246.329 L 758.653,-595.561 L 163.377,-595.561 L 163.377,246.329 z"
         id="path2583" />
    </clipPath>
    <clipPath
       id="clipPath2573">
      <path
         d="M 390.756,113.102 L 531.273,113.102 L 531.273,-213.355 L 390.756,-213.355 L 390.756,113.102 z"
         id="path2575" />
    </clipPath>
    <clipPath
       id="clipPath2565">
      <path
         d="M 390.756,113.102 L 531.273,113.102 L 531.273,-213.355 L 390.756,-213.355 L 390.756,113.102 z"
         id="path2567" />
    </clipPath>
    <clipPath
       id="clipPath2557">
      <path
         d="M 390.756,62.079 L 546.661,62.079 L 546.661,113.103 L 390.756,113.103 L 390.756,62.079 z"
         id="path2559" />
    </clipPath>
    <clipPath
       id="clipPath2549">
      <path
         d="M 0,0 L 595.276,0 L 595.276,793.701 L 0,793.701 L 0,0 z"
         id="path2551" />
    </clipPath>
    <clipPath
       id="clipPath3329">
      <path
         d="M 0,900.915 L 1263.72,900.915 L 1263.72,0.015 L 0,0.015 L 0,900.915 z"
         id="path3331" />
    </clipPath>
    <clipPath
       id="clipPath3321">
      <path
         d="M 1242.73,879.898 L 21,879.898 L 21,21 L 1242.73,21 L 1242.73,879.898 z"
         id="path3323" />
    </clipPath>
    <clipPath
       id="clipPath3313">
      <path
         d="M 1138.184,805.252 L 1010.291,805.252 L 1010.291,769.9 L 1138.184,769.9 L 1138.184,805.252 z"
         id="path3315" />
    </clipPath>
    <clipPath
       id="clipPath3305">
      <path
         d="M 1010.291,805.252 L 1138.184,805.252 L 1138.184,769.871 L 1010.291,769.871 L 1010.291,805.252 z"
         id="path3307" />
    </clipPath>
    <clipPath
       id="clipPath3297">
      <path
         d="M 999.738,842.764 L 1160.394,842.764 L 1160.394,728.991 L 999.738,728.991 L 999.738,842.764 z"
         id="path3299" />
    </clipPath>
    <clipPath
       id="clipPath3287">
      <path
         d="M 0,900.915 L 1263.72,900.915 L 1263.72,0.015 L 0,0.015 L 0,900.915 z"
         id="path3289" />
    </clipPath>
    <clipPath
       id="clipPath3279">
      <path
         d="M 1242.73,879.898 L 21,879.898 L 21,21 L 1242.73,21 L 1242.73,879.898 z"
         id="path3281" />
    </clipPath>
    <clipPath
       id="clipPath4031">
      <path
         d="M 0.03,841.95 L 619.41,841.95 L 619.41,0.03 L 0.03,0.03 L 0.03,841.95 z"
         id="path4033" />
    </clipPath>
    <clipPath
       id="clipPath4023">
      <path
         d="M 0,841.89 L 619.37,841.89 L 619.37,0 L 0,0 L 0,841.89 z"
         id="path4025" />
    </clipPath>
    <clipPath
       id="clipPath4015">
      <path
         d="M 473.16,325.985 L 596.692,325.985 L 596.692,298.588 L 473.16,298.588 L 473.16,325.985 z"
         id="path4017" />
    </clipPath>
    <clipPath
       id="clipPath4007">
      <path
         d="M 480.479,319.978 L 480.479,285.496 L 616.341,285.496 L 616.341,319.978"
         id="path4009" />
    </clipPath>
    <clipPath
       id="clipPath3999">
      <path
         d="M 0.03,841.95 L 619.41,841.95 L 619.41,0.03 L 0.03,0.03 L 0.03,841.95 z"
         id="path4001" />
    </clipPath>
    <clipPath
       id="clipPath3991">
      <path
         d="M 0,841.89 L 619.37,841.89 L 619.37,0 L 0,0 L 0,841.89 z"
         id="path3993" />
    </clipPath>
    <clipPath
       id="clipPath3983">
      <path
         d="M 441.736,167.592 L 596.692,167.592 L 596.692,28.347 L 441.736,28.347 L 441.736,167.592 z"
         id="path3985" />
    </clipPath>
    <clipPath
       id="clipPath3975">
      <path
         d="M 276.476,264.283 L 276.476,-93.83 L 662.183,-93.83 L 662.183,264.283"
         id="path3977" />
    </clipPath>
    <clipPath
       id="clipPath3965">
      <path
         d="M 0.03,841.95 L 619.41,841.95 L 619.41,0.03 L 0.03,0.03 L 0.03,841.95 z"
         id="path3967" />
    </clipPath>
    <clipPath
       id="clipPath3957">
      <path
         d="M 0,841.89 L 619.37,841.89 L 619.37,0 L 0,0 L 0,841.89 z"
         id="path3959" />
    </clipPath>
    <clipPath
       id="clipPath4704">
      <path
         d="M 645.048,813.389 L 645.048,783.973 L 787.001,783.973 L 787.001,813.389"
         id="path4706" />
    </clipPath>
    <clipPath
       id="clipPath4696">
      <path
         d="M 643.466,772.002 L 823.807,772.002 L 823.807,818.413 L 643.466,818.413 L 643.466,772.002 z"
         id="path4698" />
    </clipPath>
    <clipPath
       id="clipPath5008">
      <path
         d="M 0,841.95 L 1213.2,841.95 L 1213.2,0.03 L 0,0.03 L 0,841.95 z"
         id="path5010" />
    </clipPath>
    <clipPath
       id="clipPath5000">
      <path
         d="M 0,841 L 1213,841 L 1213,0 L 0,0 L 0,841 z"
         id="path5002" />
    </clipPath>
    <clipPath
       id="clipPath4904">
      <path
         d="M 1081.064,798.077 L 1081.064,757.633 L 1187.436,757.633 L 1187.436,798.077"
         id="path4906" />
    </clipPath>
    <clipPath
       id="clipPath4860">
      <path
         d="M 1081.064,798.077 L 1081.064,757.633 L 1187.436,757.633 L 1187.436,798.077"
         id="path4862" />
    </clipPath>
    <clipPath
       id="clipPath4852">
      <path
         d="M 0,841.95 L 1213.2,841.95 L 1213.2,0.03 L 0,0.03 L 0,841.95 z"
         id="path4854" />
    </clipPath>
    <clipPath
       id="clipPath4844">
      <path
         d="M 0,841 L 1213,841 L 1213,0 L 0,0 L 0,841 z"
         id="path4846" />
    </clipPath>
    <clipPath
       id="clipPath5308">
      <path
         d="M 0,595.017 L 840.996,595.017 L 840.996,0.009 L 0,0.009 L 0,595.017 z"
         id="path5310" />
    </clipPath>
    <clipPath
       id="clipPath5300">
      <path
         d="M -1,596 L 843,596 L 843,-1 L -1,-1 L -1,596 z"
         id="path5302" />
    </clipPath>
    <clipPath
       id="clipPath5292">
      <path
         d="M 0.89,182.05 L 204.28,182.05 L 204.28,101.77 L 0.89,101.77 L 0.89,182.05 z"
         id="path5294" />
    </clipPath>
    <clipPath
       id="clipPath6617">
      <path
         d="M 229.943,655.766 L 162.045,655.766 L 162.045,588.319 L 229.943,588.319 L 229.943,655.766 z"
         id="path6619" />
    </clipPath>
    <clipPath
       id="clipPath6469">
      <path
         d="M 229.943,655.766 L 162.045,655.766 L 162.045,588.319 L 229.943,588.319 L 229.943,655.766 z"
         id="path6471" />
    </clipPath>
    <clipPath
       id="clipPath6461">
      <path
         d="M 0.03,1191.03 L 842.01,1191.03 L 842.01,0.03 L 0.03,0.03 L 0.03,1191.03 z"
         id="path6463" />
    </clipPath>
    <clipPath
       id="clipPath6453">
      <path
         d="M 95.016,1006.524 L 746.984,1006.524 L 746.984,184.476 L 95.016,184.476 L 95.016,1006.524 z"
         id="path6455" />
    </clipPath>
    <clipPath
       id="clipPath6445">
      <path
         d="M 374.561,700.382 L 473.773,700.382 L 473.773,558.65 L 374.561,558.65 L 374.561,700.382 z"
         id="path6447" />
    </clipPath>
    <clipPath
       id="clipPath5873">
      <path
         d="M 456.632,528.013 L 436.864,528.013 L 436.864,491.299 L 95.016,491.299 L 95.016,662.388 L 154.92,662.388 L 154.92,583.702 L 219.311,583.702 L 219.311,521.145 L 363.648,521.145 L 363.648,620.75 L 236.434,620.75 L 236.434,662.388 L 373.05,662.388 L 373.05,557.232 L 456.632,557.232 L 456.632,528.013"
         id="path5875" />
    </clipPath>
    <clipPath
       id="clipPath5865">
      <path
         d="M 958.038,644.516 L -386.172,644.516 L -386.172,504.485 L 958.038,504.485 L 958.038,644.516 z"
         id="path5867" />
    </clipPath>
    <clipPath
       id="clipPath5857">
      <path
         d="M 0.03,1191.03 L 842.01,1191.03 L 842.01,0.03 L 0.03,0.03 L 0.03,1191.03 z"
         id="path5859" />
    </clipPath>
    <clipPath
       id="clipPath5849">
      <path
         d="M 95.016,1006.524 L 746.984,1006.524 L 746.984,184.476 L 95.016,184.476 L 95.016,1006.524 z"
         id="path5851" />
    </clipPath>
    <clipPath
       id="clipPath5841">
      <path
         d="M 748.863,662.388 L 748.863,557.384 L 583.549,557.384 L 583.549,611.474 L 484.062,611.474 L 484.062,557.384 L 475.05,557.384 L 475.05,662.388 L 748.863,662.388"
         id="path5843" />
    </clipPath>
    <clipPath
       id="clipPath5833">
      <path
         d="M 959.917,644.516 L -384.293,644.516 L -384.293,504.485 L 959.917,504.485 L 959.917,644.516 z"
         id="path5835" />
    </clipPath>
    <clipPath
       id="clipPath5825">
      <path
         d="M 0.03,1191.03 L 842.01,1191.03 L 842.01,0.03 L 0.03,0.03 L 0.03,1191.03 z"
         id="path5827" />
    </clipPath>
    <clipPath
       id="clipPath5817">
      <path
         d="M 95.016,1006.524 L 746.984,1006.524 L 746.984,184.476 L 95.016,184.476 L 95.016,1006.524 z"
         id="path5819" />
    </clipPath>
    <clipPath
       id="clipPath8968">
      <path
         d="M 537.019,642.286 C 532.708,642.286 528.406,643.933 525.112,647.209 C 521.962,650.359 520.162,654.67 520.162,659.125 C 520.162,660.115 520.243,661.114 520.414,662.095 C 520.558,662.905 520.765,663.706 521.026,664.498 C 521.827,666.892 523.186,669.151 525.094,671.059 C 526.687,672.652 528.505,673.849 530.449,674.677 C 531.664,675.19 532.915,675.55 534.193,675.766 C 535.138,675.919 536.083,676 537.037,676 C 541.483,675.991 545.803,674.191 548.944,671.05 C 552.229,667.756 553.867,663.445 553.867,659.143 C 553.867,658.189 553.795,657.244 553.633,656.308 C 553.417,655.03 553.048,653.779 552.544,652.573 C 551.716,650.629 550.519,648.811 548.935,647.227 C 547.027,645.319 544.777,643.969 542.374,643.159 C 541.591,642.898 540.79,642.691 539.98,642.547 C 538.999,642.376 538.009,642.286 537.019,642.286"
         id="path8970" />
    </clipPath>
    <clipPath
       id="clipPath8960">
      <path
         d="M 0,792.015 L 594,792.015 L 594,0.015 L 0,0.015 L 0,792.015 z"
         id="path8962" />
    </clipPath>
    <clipPath
       id="clipPath8952">
      <path
         d="M 0,792 L 594,792 L 594,0 L 0,0 L 0,792 z"
         id="path8954" />
    </clipPath>
    <clipPath
       id="clipPath9132">
      <path
         d="M 32768,32768 L -32768,32768 L -32768,-32768 L 32768,-32768 L 32768,32768 z"
         id="path9134" />
    </clipPath>
    <clipPath
       id="clipPath9122">
      <path
         d="M -32749.5,-32359.4 L -29908.5,-32359.4 L -29908.5,-915.441 L -32749.5,-915.441 L -32749.5,-32359.4 z"
         id="path9124" />
    </clipPath>
    <clipPath
       id="clipPath9112">
      <path
         d="M 18.724,408.701 L 167.244,408.701 L 167.244,593.252 L 18.724,593.252 L 18.724,408.701 z"
         id="path9114" />
    </clipPath>
    <clipPath
       id="clipPath9104">
      <path
         d="M 32768,32768 L -32768,32768 L -32768,-32768 L 32768,-32768 L 32768,32768 z"
         id="path9106" />
    </clipPath>
    <clipPath
       id="clipPath9094">
      <path
         d="M -32768,-32087.6 L 21784,-32087.6 L 21784,19200.4 L -32768,19200.4 L -32768,-32087.6 z"
         id="path9096" />
    </clipPath>
    <clipPath
       id="clipPath9074">
      <path
         d="M 0.8946,-0.0001 C 0.8676,-0.0001 0.8407,0.0487 0.8201,0.1459 C 0.8004,0.2394 0.7891,0.3673 0.7891,0.4994 C 0.7891,0.5288 0.7897,0.5584 0.7907,0.5875 C 0.7916,0.6115 0.7929,0.6353 0.7946,0.6588 C 0.7996,0.7298 0.8081,0.7968 0.82,0.8534 C 0.83,0.9007 0.8413,0.9362 0.8535,0.9608 C 0.8611,0.976 0.8689,0.9867 0.8769,0.9931 C 0.8828,0.9976 0.8887,1 0.8947,1 C 0.9225,0.9997 0.9495,0.9463 0.9692,0.8532 C 0.9897,0.7554 1,0.6276 1,0.4999 C 1,0.4716 0.9995,0.4436 0.9985,0.4158 C 0.9972,0.3779 0.9949,0.3408 0.9917,0.305 C 0.9865,0.2474 0.979,0.1934 0.9691,0.1465 C 0.9572,0.0899 0.9431,0.0498 0.9281,0.0258 C 0.9232,0.018 0.9182,0.0119 0.9131,0.0076 C 0.907,0.0026 0.9008,-0.0001 0.8946,-0.0001"
         id="path9076" />
    </clipPath>
    <clipPath
       id="clipPath9066">
      <path
         d="M 0,0 L 1,0 L 1,1 L 0,1 L 0,0 z"
         id="path9068" />
    </clipPath>
    <clipPath
       id="clipPath9058">
      <path
         d="M -1.36174,-0.76135 L 2.36174,-0.76135 L 2.36174,22.7836 L -1.36174,22.7836 L -1.36174,-0.76135 z"
         id="path9060" />
    </clipPath>
    <clipPath
       id="clipPath9048">
      <path
         d="M 0,0 L 595.276,0 L 595.276,793.701 L 0,793.701 L 0,0 z"
         id="path9050" />
    </clipPath>
    <clipPath
       id="clipPath9038">
      <path
         d="M 178.583,17.008 L 416.693,17.008 L 416.693,68.032 L 178.583,68.032 L 178.583,17.008 z"
         id="path9040" />
    </clipPath>
    <clipPath
       id="clipPath9028">
      <path
         d="M 0,0.701 L 595,0.701 L 595,793.701 L 0,793.701 L 0,0.701 z"
         id="path9030" />
    </clipPath>
    <clipPath
       id="clipPath9299">
      <path
         d="M 41.629,60.418 L 41.629,32.924 L 187.582,32.924 L 187.582,60.418"
         id="path9301" />
    </clipPath>
    <clipPath
       id="clipPath9279">
      <path
         d="M 41.629,60.418 L 41.629,32.924 L 187.582,32.924 L 187.582,60.418"
         id="path9281" />
    </clipPath>
    <clipPath
       id="clipPath9897">
      <path
         d="M 0,841.95 L 2077.68,841.95 L 2077.68,0.03 L 0,0.03 L 0,841.95 z"
         id="path9899" />
    </clipPath>
    <clipPath
       id="clipPath9889">
      <path
         d="M -0.398,841.445 L 2077.398,841.445 L 2077.398,-0.445 L -0.398,-0.445 L -0.398,841.445 z"
         id="path9891" />
    </clipPath>
    <clipPath
       id="clipPath9875">
      <path
         d="M 0,841.95 L 2077.68,841.95 L 2077.68,0.03 L 0,0.03 L 0,841.95 z"
         id="path9877" />
    </clipPath>
    <clipPath
       id="clipPath9867">
      <path
         d="M -0.398,841.445 L 2077.398,841.445 L 2077.398,-0.445 L -0.398,-0.445 L -0.398,841.445 z"
         id="path9869" />
    </clipPath>
    <clipPath
       id="clipPath9851">
      <path
         d="M 0,841.95 L 2077.68,841.95 L 2077.68,0.03 L 0,0.03 L 0,841.95 z"
         id="path9853" />
    </clipPath>
    <clipPath
       id="clipPath9843">
      <path
         d="M -0.398,841.445 L 2077.398,841.445 L 2077.398,-0.445 L -0.398,-0.445 L -0.398,841.445 z"
         id="path9845" />
    </clipPath>
    <clipPath
       id="clipPath9829">
      <path
         d="M 0,841.95 L 2077.68,841.95 L 2077.68,0.03 L 0,0.03 L 0,841.95 z"
         id="path9831" />
    </clipPath>
    <clipPath
       id="clipPath9821">
      <path
         d="M -0.398,841.445 L 2077.398,841.445 L 2077.398,-0.445 L -0.398,-0.445 L -0.398,841.445 z"
         id="path9823" />
    </clipPath>
    <clipPath
       id="clipPath9805">
      <path
         d="M 0,841.95 L 2077.68,841.95 L 2077.68,0.03 L 0,0.03 L 0,841.95 z"
         id="path9807" />
    </clipPath>
    <clipPath
       id="clipPath9797">
      <path
         d="M -0.398,841.445 L 2077.398,841.445 L 2077.398,-0.445 L -0.398,-0.445 L -0.398,841.445 z"
         id="path9799" />
    </clipPath>
    <clipPath
       id="clipPath9783">
      <path
         d="M 0,841.95 L 2077.68,841.95 L 2077.68,0.03 L 0,0.03 L 0,841.95 z"
         id="path9785" />
    </clipPath>
    <clipPath
       id="clipPath9775">
      <path
         d="M -0.398,841.445 L 2077.398,841.445 L 2077.398,-0.445 L -0.398,-0.445 L -0.398,841.445 z"
         id="path9777" />
    </clipPath>
    <clipPath
       id="clipPath9761">
      <path
         d="M 0,841.95 L 2077.68,841.95 L 2077.68,0.03 L 0,0.03 L 0,841.95 z"
         id="path9763" />
    </clipPath>
    <clipPath
       id="clipPath9753">
      <path
         d="M -0.398,841.445 L 2077.398,841.445 L 2077.398,-0.445 L -0.398,-0.445 L -0.398,841.445 z"
         id="path9755" />
    </clipPath>
    <clipPath
       id="clipPath9731">
      <path
         d="M 0,841.95 L 2077.68,841.95 L 2077.68,0.03 L 0,0.03 L 0,841.95 z"
         id="path9733" />
    </clipPath>
    <clipPath
       id="clipPath9723">
      <path
         d="M -0.398,841.445 L 2077.398,841.445 L 2077.398,-0.445 L -0.398,-0.445 L -0.398,841.445 z"
         id="path9725" />
    </clipPath>
    <clipPath
       id="clipPath9695">
      <path
         d="M 0,841.95 L 2077.68,841.95 L 2077.68,0.03 L 0,0.03 L 0,841.95 z"
         id="path9697" />
    </clipPath>
    <clipPath
       id="clipPath9687">
      <path
         d="M -0.398,841.445 L 2077.398,841.445 L 2077.398,-0.445 L -0.398,-0.445 L -0.398,841.445 z"
         id="path9689" />
    </clipPath>
    <clipPath
       id="clipPath9673">
      <path
         d="M 0,841.95 L 2077.68,841.95 L 2077.68,0.03 L 0,0.03 L 0,841.95 z"
         id="path9675" />
    </clipPath>
    <clipPath
       id="clipPath9665">
      <path
         d="M -0.398,841.445 L 2077.398,841.445 L 2077.398,-0.445 L -0.398,-0.445 L -0.398,841.445 z"
         id="path9667" />
    </clipPath>
    <clipPath
       id="clipPath9611">
      <path
         d="M 0,841.95 L 2077.68,841.95 L 2077.68,0.03 L 0,0.03 L 0,841.95 z"
         id="path9613" />
    </clipPath>
    <clipPath
       id="clipPath9603">
      <path
         d="M -0.398,841.445 L 2077.398,841.445 L 2077.398,-0.445 L -0.398,-0.445 L -0.398,841.445 z"
         id="path9605" />
    </clipPath>
    <clipPath
       id="clipPath9595">
      <path
         d="M -8.902,849.949 L 694.09,849.949 L 694.09,-8.949 L -8.902,-8.949 L -8.902,849.949 z"
         id="path9597" />
    </clipPath>
    <clipPath
       id="clipPath9587">
      <path
         d="M 697.594,849.949 L -13.902,849.949 L -13.902,-8.948 L 697.594,-8.948 L 697.594,849.949 z"
         id="path9589" />
    </clipPath>
    <clipPath
       id="clipPath9579">
      <path
         d="M 0,841.95 L 2077.68,841.95 L 2077.68,0.03 L 0,0.03 L 0,841.95 z"
         id="path9581" />
    </clipPath>
    <clipPath
       id="clipPath9571">
      <path
         d="M -0.398,841.445 L 2077.398,841.445 L 2077.398,-0.445 L -0.398,-0.445 L -0.398,841.445 z"
         id="path9573" />
    </clipPath>
    <clipPath
       id="clipPath9561">
      <path
         d="M 0,841.95 L 2077.68,841.95 L 2077.68,0.03 L 0,0.03 L 0,841.95 z"
         id="path9563" />
    </clipPath>
    <clipPath
       id="clipPath9553">
      <path
         d="M -0.398,841.445 L 2077.398,841.445 L 2077.398,-0.445 L -0.398,-0.445 L -0.398,841.445 z"
         id="path9555" />
    </clipPath>
    <clipPath
       id="clipPath9539">
      <path
         d="M 0,841.95 L 2077.68,841.95 L 2077.68,0.03 L 0,0.03 L 0,841.95 z"
         id="path9541" />
    </clipPath>
    <clipPath
       id="clipPath9531">
      <path
         d="M -0.398,841.445 L 2077.398,841.445 L 2077.398,-0.445 L -0.398,-0.445 L -0.398,841.445 z"
         id="path9533" />
    </clipPath>
    <clipPath
       id="clipPath9523">
      <path
         d="M 694.091,849.949 L 1388.579,849.949 L 1388.579,-8.949 L 694.091,-8.949 L 694.091,849.949 z"
         id="path9525" />
    </clipPath>
    <clipPath
       id="clipPath9515">
      <path
         d="M 1398.182,849.949 L 686.686,849.949 L 686.686,-8.948 L 1398.182,-8.948 L 1398.182,849.949 z"
         id="path9517" />
    </clipPath>
    <clipPath
       id="clipPath9507">
      <path
         d="M 0,841.95 L 2077.68,841.95 L 2077.68,0.03 L 0,0.03 L 0,841.95 z"
         id="path9509" />
    </clipPath>
    <clipPath
       id="clipPath9499">
      <path
         d="M -0.398,841.445 L 2077.398,841.445 L 2077.398,-0.445 L -0.398,-0.445 L -0.398,841.445 z"
         id="path9501" />
    </clipPath>
    <clipPath
       id="clipPath9487">
      <path
         d="M 0,841.95 L 2077.68,841.95 L 2077.68,0.03 L 0,0.03 L 0,841.95 z"
         id="path9489" />
    </clipPath>
    <clipPath
       id="clipPath9479">
      <path
         d="M 0,0 L 2077,0 L 2077,841 L 0,841 L 0,0 z"
         id="path9481" />
    </clipPath>
  </defs>
  <g
     transform="translate(-4485.9033,1567.9149)"
     id="layer1">
    <path
       d="M 4851.6097,-1391.4217 C 4852.2922,-1392.8003 4853.4388,-1395.0661 4853.8892,-1396.2127 L 4881.6662,-1463.5807 L 4908.9791,-1395.5302 C 4909.4366,-1394.3836 4910.3375,-1392.5682 4911.02,-1390.9712 L 4907.6207,-1390.2887 C 4899.8748,-1388.2413 4891.228,-1386.8763 4882.3487,-1386.8763 C 4873.4693,-1386.8763 4865.273,-1388.0092 4856.6192,-1390.2887 C 4855.0221,-1390.7463 4852.7563,-1391.4217 4851.6097,-1391.4217 M 4569.1379,-1494.0876 C 4600.0953,-1494.0876 4621.9549,-1487.7132 4635.6116,-1475.6469 C 4651.9911,-1461.3148 4660.1874,-1442.4101 4660.1874,-1418.7416 C 4660.1874,-1396.2127 4652.2161,-1377.5334 4636.5125,-1362.9693 C 4622.8557,-1349.9951 4600.5523,-1343.1702 4569.1379,-1343.1702 L 4559.1257,-1343.1702 L 4559.1257,-1494.0876 L 4569.1379,-1494.0876 z M 5525.1432,-1474.7324 C 5540.6355,-1459.7107 5548.1428,-1440.8196 5548.1428,-1418.7416 C 5548.1428,-1396.8886 5540.3969,-1378.2296 5525.1432,-1362.7438 C 5509.8971,-1347.4972 5491.4631,-1339.7578 5469.8421,-1339.7578 C 5426.3615,-1339.7578 5391.7662,-1375.4925 5391.7662,-1418.7416 C 5391.7662,-1440.5876 5399.499,-1459.4858 5414.7522,-1474.9644 C 5429.7739,-1490.2111 5448.4465,-1497.732 5469.8421,-1497.732 C 5491.2376,-1497.732 5509.6716,-1489.9856 5525.1432,-1474.7324 z M 5158.4603,-1461.5398 L 5185.9982,-1485.2153 C 5162.3226,-1516.848 5130.6834,-1532.5522 5093.3582,-1532.5522 C 5029.8399,-1532.5522 4978.6266,-1481.7958 4978.6266,-1418.2841 C 4978.6266,-1356.1374 5029.6145,-1304.9311 5091.7546,-1304.9311 C 5107.4582,-1304.9311 5122.4794,-1308.3501 5137.0506,-1314.9499 C 5151.1709,-1321.3243 5163.4555,-1330.2031 5173.4815,-1341.8053 C 5183.0362,-1352.5 5189.1851,-1364.7912 5192.823,-1378.2296 C 5195.7849,-1389.3742 5197.6074,-1403.0375 5196.6858,-1419.4307 L 5196.2354,-1426.0305 L 5096.9961,-1426.0305 L 5096.9961,-1391.1967 L 5157.9957,-1391.1967 C 5156.4058,-1377.5334 5149.3418,-1365.6992 5137.0506,-1355.9124 C 5123.626,-1344.9927 5108.3657,-1339.7578 5091.3036,-1339.7578 C 5071.4986,-1339.7578 5053.7399,-1347.9476 5037.3603,-1364.1088 C 5022.5642,-1379.137 5015.0438,-1397.1135 5015.0438,-1418.0592 C 5015.0438,-1440.1372 5022.7896,-1459.2603 5038.7188,-1475.1894 C 5053.7399,-1490.4431 5071.9485,-1497.732 5092.887,-1497.732 C 5119.7495,-1497.732 5140.9206,-1485.4402 5158.4603,-1461.5398 z M 4925.1337,-1356.6015 L 4945.3963,-1308.3501 L 4985.4645,-1308.3501 L 4891.453,-1529.5902 L 4873.2444,-1529.5902 L 4776.7279,-1308.3501 L 4816.5646,-1308.3501 L 4837.7346,-1357.5094 C 4838.1856,-1358.8744 4838.4106,-1359.7889 4838.6426,-1360.6964 C 4839.5435,-1360.2394 4840.9221,-1359.7889 4842.5054,-1359.0994 C 4854.3397,-1354.5475 4868.4605,-1352.0496 4882.3487,-1352.0496 C 4895.9983,-1352.0496 4909.4366,-1354.7795 4917.408,-1357.5094 C 4921.4958,-1358.8744 4922.8537,-1359.5498 4924.0002,-1360.2394 C 4924.2328,-1359.3248 4924.9082,-1357.2774 4925.1337,-1356.6015 z M 4567.9979,-1308.3501 C 4608.5165,-1308.3501 4639.6994,-1317.4478 4660.645,-1336.3454 C 4684.5384,-1357.7415 4696.6046,-1385.0544 4696.6046,-1418.5162 C 4696.6046,-1453.3434 4684.3134,-1481.3317 4659.737,-1502.2773 C 4639.024,-1520.0355 4608.2916,-1528.9143 4568.4554,-1528.9143 L 4521.3364,-1528.9143 L 4521.3364,-1308.3501 L 4567.9979,-1308.3501 z M 4762.3887,-1528.9143 L 4726.2036,-1528.9143 L 4726.2036,-1308.3501 L 4762.3887,-1308.3501 L 4762.3887,-1528.9143 z M 5256.5531,-1411.2344 L 5333.7215,-1411.2344 L 5333.7215,-1445.829 L 5256.5531,-1445.829 L 5256.5531,-1494.0876 L 5340.5463,-1494.0876 L 5340.5463,-1528.9143 L 5220.3608,-1528.9143 L 5220.3608,-1308.3501 L 5340.7712,-1308.3501 L 5340.7712,-1343.1702 L 5256.5531,-1343.1702 L 5256.5531,-1411.2344 z M 5389.0363,-1499.0899 C 5366.4937,-1477.0119 5355.3561,-1449.931 5355.3561,-1418.5162 C 5355.3561,-1355.0045 5406.5624,-1304.9311 5469.8421,-1304.9311 C 5533.3472,-1304.9311 5584.3285,-1354.7795 5584.3285,-1418.5162 C 5584.3285,-1449.699 5572.9442,-1476.336 5550.8728,-1498.8649 C 5528.5556,-1521.4004 5501.4748,-1532.5522 5469.8421,-1532.5522 C 5438.4206,-1532.5522 5411.3398,-1521.4004 5389.0363,-1499.0899"
       id="path9547"
       style="fill:#be2255;fill-opacity:1;fill-rule:nonzero;stroke:none" />
  </g>
</svg>
