<?xml version="1.0" encoding="utf-8"?>
<!-- Generator: Adobe Illustrator 19.0.0, SVG Export Plug-In . SVG Version: 6.00 Build 0)  -->
<svg  width="2192" height="2000" version="1.1" xmlns="http://www.w3.org/2000/svg" xmlns:xlink="http://www.w3.org/1999/xlink" x="0px" y="0px"
	 viewBox="0 0 617.4 68.6" style="enable-background:new 0 0 617.4 68.6;" xml:space="preserve">
<polygon points="0,2.1 0,68.2 14,68.2 14,30.6 51.2,68.4 55.5,68.4 55.5,2.4 41.4,2.4 41.4,39.7 4.4,2.1 "/>
<g>
	<path d="M109.2,55.5c10.2,0,19.6-6.8,19.6-21.1c0-14-9.2-21-19.5-21c-10.3,0-19.6,7-19.6,21C89.7,48.7,98.6,55.5,109.2,55.5
		 M109,68.3c-17.6,0-33.5-11.8-33.5-34c0-22.2,16.3-33.9,33.7-33.9c17.2,0,33.5,11.8,33.5,33.9C142.7,54.3,128.9,68.3,109,68.3"/>
	<path d="M188.4,34.8c5.9,0,9.8-4.6,9.7-10.2c0-5.5-3.7-10-9.7-10h-14.1v20.2H188.4z M214.8,66.1v2h-15l-13.5-21.7h-11.7v21.7h-14.1
		V2.3c9.4,0,18.7-0.1,28.1,0c15,0,23.2,10.9,23.2,22.6c0,8.4-4.2,15.7-11.7,19.4L214.8,66.1z"/>
</g>
<polygon points="225.9,14.7 225.9,2.5 274.6,2.5 274.6,14.7 257.1,14.7 257.1,68.3 243.5,68.3 243.5,14.7 "/>
<polygon points="332.8,68.3 332.8,40.4 307.6,40.4 307.6,68.3 293.6,68.3 293.6,2.5 307.6,2.5 307.6,27.6 332.8,27.6 332.8,2.5 
	346.9,2.5 346.9,68.3 "/>
<g>
	<path d="M381.7,47.7c0.3,6,6.9,8.6,13.3,8.6c5.8,0,12.6-1.4,12.6-8.3c0-7.5-8.1-8.2-14.4-8.6c-11.9-1-24-5.1-24-18.7
		c0-14.6,11.9-20.7,25-20.7c12.3,0,25.1,5.2,25.1,19.9h-13.2c-0.8-5.4-6.3-7.6-11.9-7.6c-5.6,0-11.2,3-11.2,8.1
		c0,5.8,5.7,7.1,12.6,7.9c13.9,1.2,25.8,4.3,25.8,19.7c0,15.5-13.4,20.3-26.4,20.6c-13.2,0-26.8-6.5-26.8-20.9H381.7z"/>
</g>
<polygon points="432,14.7 432,2.5 480.7,2.5 480.7,14.7 463.2,14.7 463.2,68.3 449.6,68.3 449.6,14.7 "/>
<path d="M506.7,45.5h18.2l-9.1-21.7L506.7,45.5z M502.1,57.3L497,68.2h-14.7v-1.9l30.3-64.5h6.5l30.1,64.5v1.9h-14.6l-5.2-10.9
	H502.1z"/>
<g>
	<path d="M590.9,35c5.9,0,9.8-4.6,9.7-10.2c0-5.5-3.7-10-9.7-10h-14.1V35H590.9z M617.4,66.3v2h-15l-13.5-21.7H577v21.7h-14.1V2.5
		c9.4,0,18.7-0.1,28.1,0c15,0,23.2,10.9,23.2,22.6c0,8.4-4.2,15.7-11.8,19.4L617.4,66.3z"/>
</g>
</svg>
